nColumns=19
nRows=64
DataType=double
version=3
OpenSimVersion=4.1
endheader
time	ground_force_calcn_r_vx	ground_force_calcn_r_vy	ground_force_calcn_r_vz	ground_force_calcn_r_px	ground_force_calcn_r_py	ground_force_calcn_r_pz	ground_force_calcn_r_mx	ground_force_calcn_r_my	ground_force_calcn_r_mz	ground_force_calcn_l_vx	ground_force_calcn_l_vy	ground_force_calcn_l_vz	ground_force_calcn_l_px	ground_force_calcn_l_py	ground_force_calcn_l_pz	ground_force_calcn_l_mx	ground_force_calcn_l_my	ground_force_calcn_l_mz
6.73	-0.354041	324.074	-38.3311	-0.252391	0	-0.408002	0.00210521	-1.92702	0.227926	-0.601827	310.996	36.4126	-0.250249	0	-0.788036	-0.00592137	3.05989	0.358263
6.74	-0.184453	324.393	-38.376	-0.252616	0	-0.408097	0.00108816	-1.91372	0.226395	-0.553083	312.296	36.6167	-0.250389	0	-0.788125	-0.00544308	3.07341	0.360358
6.75	0.0656293	325.006	-38.4372	-0.252919	0	-0.408205	-0.000383828	-1.90077	0.224797	-0.444444	314.075	36.8624	-0.250598	0	-0.788202	-0.00436749	3.08637	0.362242
6.76	0.403055	325.908	-38.513	-0.253302	0	-0.408328	-0.00233569	-1.88862	0.223181	-0.280429	316.363	37.1589	-0.250875	0	-0.788272	-0.00274697	3.09896	0.363993
6.77	0.828608	327.089	-38.6025	-0.253768	0	-0.408465	-0.00475684	-1.87774	0.221608	-0.0699989	319.175	37.5156	-0.251216	0	-0.788337	-0.000682324	3.1112	0.365689
6.78	1.33602	328.532	-38.7065	-0.254309	0	-0.408614	-0.00759868	-1.86854	0.220145	0.173638	322.509	37.9414	-0.251614	0	-0.7884	0.00168153	3.12322	0.367429
6.79	1.9131	330.209	-38.8268	-0.254921	0	-0.408773	-0.0107844	-1.86143	0.218872	0.433833	326.338	38.4429	-0.252059	0	-0.788464	0.00416797	3.13523	0.369333
6.8	2.5433	332.079	-38.9664	-0.255592	0	-0.408939	-0.0142203	-1.85674	0.217871	0.692476	330.61	39.0243	-0.252537	0	-0.788533	0.00659256	3.1475	0.371521
6.81	3.20766	334.088	-39.1296	-0.256311	0	-0.409106	-0.0178069	-1.85465	0.217223	0.932812	335.25	39.6857	-0.253039	0	-0.788608	0.00879277	3.1601	0.374082
6.82	3.88705	336.169	-39.3222	-0.257065	0	-0.409268	-0.0214511	-1.85518	0.217004	1.14126	340.156	40.423	-0.253551	0	-0.788691	0.0106452	3.17281	0.377047
6.83	4.5648	338.247	-39.5505	-0.257842	0	-0.409423	-0.0250768	-1.85817	0.217272	1.30822	345.207	41.227	-0.254065	0	-0.78878	0.0120709	3.18523	0.380401
6.84	5.22767	340.242	-39.8197	-0.258632	0	-0.409564	-0.0286252	-1.86307	0.218041	1.42757	350.274	42.0838	-0.254571	0	-0.788872	0.0130279	3.19658	0.384054
6.85	5.86562	342.079	-40.1322	-0.259422	0	-0.409691	-0.0320482	-1.86903	0.219271	1.49669	355.223	42.975	-0.255064	0	-0.788965	0.0135072	3.20579	0.387838
6.86	6.47037	343.69	-40.4864	-0.260205	0	-0.409802	-0.0352972	-1.8749	0.220862	1.51656	359.929	43.8794	-0.255539	0	-0.789054	0.0135325	3.21168	0.39154
6.87	7.0345	345.02	-40.8765	-0.26097	0	-0.409898	-0.0383171	-1.87933	0.222656	1.49074	364.282	44.7743	-0.255994	0	-0.789135	0.013149	3.21312	0.394928
6.88	7.55251	346.025	-41.292	-0.26171	0	-0.409982	-0.0410532	-1.88089	0.224451	1.42407	368.19	45.6376	-0.256425	0	-0.789206	0.0124118	3.20906	0.397766
6.89	8.02203	346.678	-41.7193	-0.262419	0	-0.410058	-0.0434614	-1.87822	0.226025	1.32198	371.577	46.4492	-0.25683	0	-0.78926	0.0113799	3.19864	0.399847
6.9	8.44358	346.965	-42.1432	-0.263091	0	-0.410131	-0.0455104	-1.87012	0.22715	1.19119	374.387	47.1927	-0.257207	0	-0.789297	0.0101224	3.18142	0.401029
6.91	8.8186	346.885	-42.5498	-0.263719	0	-0.410205	-0.0471739	-1.85561	0.227614	1.04038	376.584	47.8576	-0.257554	0	-0.789314	0.0087225	3.15726	0.401236
6.92	9.14766	346.452	-42.9275	-0.264294	0	-0.410283	-0.0484268	-1.83408	0.227254	0.880133	378.158	48.44	-0.257871	0	-0.789312	0.00727622	3.1263	0.400463
6.93	9.42999	345.69	-43.2688	-0.26481	0	-0.410368	-0.0492455	-1.80527	0.225959	0.721874	379.123	48.9423	-0.258157	0	-0.78929	0.00588168	3.08902	0.398771
6.94	9.66348	344.638	-43.5702	-0.265261	0	-0.41046	-0.0496076	-1.7692	0.223668	0.576513	379.516	49.3708	-0.258415	0	-0.78925	0.00462745	3.04622	0.39628
6.95	9.84453	343.343	-43.8309	-0.265641	0	-0.41056	-0.0494912	-1.72608	0.22035	0.453435	379.387	49.7351	-0.258646	0	-0.789196	0.00358437	2.99903	0.393152
6.96	9.96955	341.855	-44.052	-0.265945	0	-0.410666	-0.0488866	-1.67632	0.216013	0.360366	378.796	50.0456	-0.258855	0	-0.789128	0.00280529	2.94876	0.389583
6.97	10.0373	340.217	-44.2351	-0.266173	0	-0.410777	-0.0478153	-1.6207	0.210724	0.303107	377.803	50.3129	-0.259046	0	-0.789051	0.0023242	2.89697	0.385796
6.98	10.0519	338.46	-44.3827	-0.266332	0	-0.410893	-0.0463398	-1.56032	0.204607	0.28364	376.465	50.5461	-0.25922	0	-0.788968	0.00214367	2.84521	0.382012
6.99	10.0236	336.604	-44.497	-0.266427	0	-0.411011	-0.0445606	-1.4964	0.197815	0.299188	374.831	50.7514	-0.259379	0	-0.788881	0.00223103	2.79509	0.37845
7	9.96661	334.657	-44.5807	-0.26647	0	-0.411128	-0.0425959	-1.43028	0.190532	0.343979	372.941	50.9317	-0.259527	0	-0.788796	0.00253475	2.74817	0.375312
7.01	9.89473	332.619	-44.6379	-0.266467	0	-0.41124	-0.0405551	-1.36329	0.182955	0.411471	370.831	51.0874	-0.259663	0	-0.788712	0.00300256	2.70601	0.372792
7.02	9.81847	330.486	-44.6736	-0.266425	0	-0.411342	-0.0385253	-1.29675	0.175289	0.495544	368.527	51.2164	-0.259788	0	-0.788637	0.00359044	2.67014	0.371086
7.03	9.74528	328.253	-44.6948	-0.266348	0	-0.411427	-0.0365736	-1.23192	0.167738	0.591491	366.05	51.3174	-0.259907	0	-0.788571	0.00426907	2.64196	0.370382
7.04	9.68097	325.914	-44.7097	-0.266241	0	-0.411494	-0.0347546	-1.17003	0.160507	0.696511	363.419	51.3912	-0.260021	0	-0.788519	0.00502658	2.62272	0.37088
7.05	9.6297	323.464	-44.7265	-0.266105	0	-0.411533	-0.0331102	-1.11218	0.153785	0.809038	360.646	51.4418	-0.260138	0	-0.788481	0.00586282	2.61348	0.372781
7.06	9.59368	320.899	-44.752	-0.265945	0	-0.411541	-0.031669	-1.0593	0.147728	0.927434	357.745	51.4761	-0.260263	0	-0.788457	0.00677904	2.61492	0.376262
7.07	9.57266	318.219	-44.7917	-0.265762	0	-0.411515	-0.0304452	-1.01207	0.142457	1.04904	354.729	51.5012	-0.260398	0	-0.788451	0.00776975	2.62731	0.381445
7.08	9.56342	315.424	-44.8487	-0.26556	0	-0.411451	-0.0294386	-0.970956	0.138056	1.17075	351.613	51.5232	-0.260546	0	-0.788461	0.00882526	2.65051	0.38839
7.09	9.56058	312.509	-44.9235	-0.265336	0	-0.411347	-0.0286407	-0.936187	0.134578	1.29	348.415	51.5465	-0.260706	0	-0.788486	0.0099375	2.68401	0.397088
7.1	9.55863	309.464	-45.014	-0.265091	0	-0.411201	-0.0280408	-0.90783	0.132051	1.4049	345.149	51.5729	-0.260878	0	-0.788523	0.0110992	2.72681	0.407446
7.11	9.55238	306.269	-45.1144	-0.264825	0	-0.411016	-0.0276267	-0.885767	0.130476	1.51376	341.821	51.6013	-0.261062	0	-0.78857	0.0123001	2.77747	0.419288
7.12	9.53634	302.901	-45.2143	-0.264537	0	-0.410795	-0.0273782	-0.869609	0.129807	1.61506	338.42	51.6277	-0.261259	0	-0.788621	0.0135252	2.83407	0.432352
7.13	9.50305	299.33	-45.2983	-0.264224	0	-0.410541	-0.0272592	-0.858618	0.129937	1.70727	334.927	51.6465	-0.261466	0	-0.788674	0.0147536	2.89432	0.44631
7.14	9.44111	295.524	-45.3492	-0.26388	0	-0.410262	-0.0272123	-0.851797	0.130711	1.78737	331.31	51.6526	-0.261677	0	-0.788724	0.015945	2.95559	0.460789
7.15	9.33371	291.46	-45.352	-0.263496	0	-0.409964	-0.0271561	-0.847994	0.13195	1.84966	327.534	51.6419	-0.261885	0	-0.788771	0.0170266	3.01503	0.475376
7.16	9.15904	287.129	-45.2976	-0.263053	0	-0.409646	-0.0269859	-0.845989	0.133463	1.88645	323.565	51.6125	-0.262077	0	-0.788813	0.0178981	3.06989	0.489684
7.17	8.89426	282.54	-45.1844	-0.262535	0	-0.409312	-0.0265895	-0.844659	0.13508	1.88885	319.372	51.5641	-0.262241	0	-0.78885	0.0184387	3.11766	0.503361
7.18	8.52199	277.722	-45.0174	-0.261924	0	-0.40896	-0.0258659	-0.842938	0.136636	1.84725	314.932	51.4951	-0.262362	0	-0.788882	0.018512	3.15606	0.516053
7.19	8.03534	272.721	-44.8044	-0.261208	0	-0.408589	-0.0247411	-0.839719	0.137955	1.75248	310.226	51.4005	-0.262424	0	-0.788906	0.0179814	3.18309	0.527398
7.2	7.43949	267.599	-44.5538	-0.260383	0	-0.408203	-0.0231795	-0.833768	0.138818	1.59754	305.241	51.271	-0.262419	0	-0.788921	0.016733	3.19718	0.537027
7.21	6.75183	262.423	-44.2726	-0.259452	0	-0.407802	-0.0211937	-0.823735	0.13897	1.37993	299.969	51.0932	-0.262337	0	-0.788922	0.0147077	3.19716	0.544567
7.22	6.00194	257.262	-43.9666	-0.258423	0	-0.40739	-0.0188547	-0.808171	0.138118	1.10517	294.415	50.852	-0.262182	0	-0.788903	0.011946	3.1824	0.549672
7.23	5.22783	252.183	-43.6406	-0.257305	0	-0.406971	-0.0162855	-0.785591	0.135947	0.78812	288.597	50.5318	-0.261953	0	-0.788856	0.00861012	3.15289	0.552055
7.24	4.46644	247.247	-43.2977	-0.256102	0	-0.406548	-0.0136329	-0.754673	0.132158	0.449398	282.552	50.1196	-0.261655	0	-0.788777	0.00494481	3.10898	0.551476
7.25	3.7425	242.499	-42.9395	-0.254805	0	-0.406122	-0.0110271	-0.71451	0.126519	0.109237	276.331	49.6056	-0.261286	0	-0.788663	0.00120625	3.05138	0.547769
7.26	3.06422	237.962	-42.5657	-0.253399	0	-0.405692	-0.0085609	-0.664826	0.118921	-0.21648	269.987	48.984	-0.26084	0	-0.788512	-0.00239037	2.9812	0.540881
7.27	2.42666	233.644	-42.1759	-0.251864	0	-0.405254	-0.00629475	-0.606073	0.109404	-0.516133	263.567	48.2537	-0.260314	0	-0.788326	-0.00567866	2.89986	0.530903
7.28	1.81732	229.542	-41.772	-0.250179	0	-0.404807	-0.00426904	-0.539214	0.0981258	-0.780152	257.108	47.4203	-0.259711	0	-0.788105	-0.0085242	2.80925	0.51813
7.29	1.22083	225.649	-41.3585	-0.248336	0	-0.404344	-0.00251851	-0.465503	0.0853205	-0.999765	250.642	46.4972	-0.25904	0	-0.787852	-0.0108168	2.71179	0.50307
7.3	0.624042	221.961	-40.9431	-0.246329	0	-0.403865	-0.00108643	-0.386426	0.0712803	-1.1682	244.199	45.5052	-0.258315	0	-0.787576	-0.0124858	2.61002	0.486365
7.31	0.0213553	218.487	-40.5358	-0.244173	0	-0.403367	-2.96829e-05	-0.303687	0.0563428	-1.28194	237.816	44.4711	-0.25755	0	-0.787285	-0.013511	2.50647	0.468704
7.32	-0.581713	215.251	-40.1475	-0.241895	0	-0.402847	0.000592109	-0.219098	0.0408651	-1.33957	231.543	43.4252	-0.256758	0	-0.786987	-0.013904	2.40329	0.450729
7.33	-1.16566	212.292	-39.789	-0.239536	0	-0.402311	0.000738541	-0.134505	0.0252097	-1.34043	225.449	42.3977	-0.255943	0	-0.786698	-0.0136897	2.3025	0.433005
7.34	-1.69896	209.667	-39.4726	-0.237149	0	-0.401762	0.000418848	-0.0516896	0.00973127	-1.28651	219.625	41.4154	-0.2551	0	-0.786432	-0.0129216	2.20589	0.415973
7.35	-2.14592	207.445	-39.2123	-0.234793	0	-0.401207	-0.000287096	0.0277534	-0.00524608	-1.18424	214.179	40.4983	-0.254217	0	-0.786203	-0.011695	2.11514	0.399943
7.36	-2.47649	205.706	-39.0211	-0.232522	0	-0.400652	-0.00123366	0.102472	-0.0194383	-1.04352	209.238	39.6592	-0.25328	0	-0.786023	-0.0101331	2.03181	0.385112
